<svg width="22" height="44" viewBox="0 0 22 44" fill="none" xmlns="http://www.w3.org/2000/svg">
<path d="M4.8555 42V18.9364H17.237V42L11.1676 36.4162L4.8555 42Z" fill="#C48136"/>
<circle cx="10.9249" cy="10.9249" r="10.9249" fill="#C48136"/>
<path d="M4.8555 18.4509V41.5144L11.1676 35.9306L17.237 41.5144V18.4509" stroke="#CACF74" stroke-width="2"/>
<path d="M5.51667 9.55199L4.92645 9.81431C4.71906 9.90648 4.53041 10.036 4.36993 10.1965H6.79768L7.46859 9.52561C7.66843 9.32577 7.85296 9.11118 8.02061 8.88365C9.53368 6.8302 12.6385 6.94157 14.0005 9.09816L14.0809 9.22543L14.8092 10.1965H17.7225C17.5621 10.036 17.3734 9.90648 17.166 9.81431L16.6417 9.58126C15.766 9.19207 15.035 8.53725 14.5521 7.70953L14.2257 7.14999C13.8115 6.43987 13.2335 5.83907 12.5399 5.39769L12.4542 5.34317C11.5211 4.74936 10.3286 4.74936 9.39548 5.34317C8.64877 5.81835 8.04524 6.48753 7.64942 7.27918L7.4246 7.72882C7.0193 8.53941 6.34484 9.18392 5.51667 9.55199Z" fill="#D9D9D9"/>
<path d="M8.81635 9.66444L8.4971 10.1965H10.1965L10.9248 17.4798L11.6532 10.1965H13.5954L13.0505 9.51542C12.7707 9.16565 12.4089 8.89033 11.9972 8.71389L11.8935 8.66945C11.2749 8.40436 10.5748 8.40436 9.95624 8.66945C9.48114 8.87306 9.08229 9.22121 8.81635 9.66444Z" fill="#D9D9D9"/>
<path d="M21.8497 10.9249C21.8497 16.9585 16.9585 21.8497 10.9249 21.8497C4.89122 21.8497 0 16.9585 0 10.9249C0 4.89122 4.89122 0 10.9249 0C16.9585 0 21.8497 4.89122 21.8497 10.9249ZM1.84746 10.9249C1.84746 15.9382 5.91155 20.0022 10.9249 20.0022C15.9382 20.0022 20.0022 15.9382 20.0022 10.9249C20.0022 5.91155 15.9382 1.84746 10.9249 1.84746C5.91155 1.84746 1.84746 5.91155 1.84746 10.9249Z" fill="#403A3A"/>
</svg>
