<svg width="22" height="44" viewBox="0 0 22 44" fill="none" xmlns="http://www.w3.org/2000/svg">
<path d="M4.85547 42V18.9364H17.237V42L11.1676 36.4162L4.85547 42Z" fill="#23343B"/>
<circle cx="10.9249" cy="10.9249" r="10.9249" fill="#23343B"/>
<path d="M4.85547 18.4509V41.5144L11.1676 35.9306L17.237 41.5144V18.4509" stroke="#FFCB7B" stroke-width="2"/>
<path d="M21.8497 10.9249C21.8497 16.9585 16.9585 21.8497 10.9249 21.8497C4.89122 21.8497 0 16.9585 0 10.9249C0 4.89122 4.89122 0 10.9249 0C16.9585 0 21.8497 4.89122 21.8497 10.9249ZM1.84746 10.9249C1.84746 15.9382 5.91155 20.0022 10.9249 20.0022C15.9382 20.0022 20.0022 15.9382 20.0022 10.9249C20.0022 5.91155 15.9382 1.84746 10.9249 1.84746C5.91155 1.84746 1.84746 5.91155 1.84746 10.9249Z" fill="#403A3A"/>
<path d="M10.2185 5.34707L10.1389 5.18786C10.0914 5.09283 9.96684 5.06834 9.88688 5.13831C9.82368 5.1936 9.81311 5.28797 9.8625 5.35588L9.96719 5.49984C10.0114 5.56068 10.0944 5.57848 10.1597 5.54116C10.2277 5.50231 10.2535 5.41711 10.2185 5.34707Z" fill="#B01B07"/>
<path d="M7.58427 6.85393L7.14607 7.25843L9.06448 7.67654C9.53535 7.77917 9.98687 7.95609 10.4021 8.20068C11.5983 8.90528 12.5611 9.94572 13.1711 11.1928L13.7528 12.382H14.8989L14.7234 11.6948C14.5715 11.0998 14.3351 10.5297 14.0214 10.0018C13.4164 8.9836 12.7288 8.01676 11.9656 7.11105L11.2918 6.31152C10.986 5.94865 10.3999 6.06747 10.2596 6.52079L10.1461 6.88764L9.92999 6.67157C9.69994 6.44151 9.39393 6.30317 9.06924 6.28245L8.74472 6.26174C8.27869 6.23199 7.83363 6.45911 7.58427 6.85393Z" fill="#B01B07"/>
<path d="M13.7528 8.06742L11.5955 5.74157L12.9009 6.20621C13.3502 6.36612 13.7555 6.62947 14.0842 6.97499L14.1516 7.0459C14.6409 7.56029 14.9842 8.19588 15.1459 8.88713C15.2282 9.23836 15.2697 9.59789 15.2697 9.95862V11.236L13.7528 8.06742Z" fill="#B01B07"/>
<path d="M7.72576 8.75477L7.68554 8.61689C7.62974 8.42555 7.38104 8.33063 7.18886 8.38347C6.91944 8.45754 6.70433 8.59401 6.52249 8.80616L6.3688 8.98547C6.13081 9.26312 6 9.61674 6 9.98242V10.0899C6.17828 10.5579 6.26966 11.0545 6.26966 11.5552V12.8202H7.72662C7.89614 12.8202 8.06045 12.8789 8.19165 12.9862L8.26074 13.0428C8.55796 13.2859 8.73034 13.6497 8.73034 14.0337L7.82022 15.2472V16.1573H8.73034L8.89075 15.7677C9.08829 15.288 9.48718 14.9196 9.98113 14.7609C10.0413 14.7415 10.0946 14.8051 10.065 14.861L9.53933 15.8539V17H11.7303L11.5955 15.2472L11.8652 14.4719L12.3708 15.0112L12.5393 16.5618L13.9551 16.2921L13.5843 14.7079C13.1039 14.2066 12.9244 13.4886 13.1124 12.8202C13.1973 12.438 13.0984 12.0381 12.8452 11.7395L11.154 9.74539C11.0492 9.62181 10.8953 9.55056 10.7333 9.55056C10.5552 9.55056 10.388 9.63659 10.2844 9.78156L9.8725 10.3583C9.80821 10.4483 9.76055 10.5491 9.7318 10.6559C9.61186 11.1014 9.27336 11.4551 8.8336 11.5946L8.64176 11.6554C8.3373 11.7519 8.00504 11.6973 7.74747 11.5084L7.63952 11.4293C7.32933 11.2018 7.14607 10.8402 7.14607 10.4555C7.14607 10.2171 7.21663 9.98404 7.34887 9.78568L7.63308 9.35937C7.75172 9.1814 7.78565 8.9601 7.72576 8.75477Z" fill="#B01B07"/>
<path d="M10.8817 12.7865C10.612 12.7865 10.2524 13.1236 10.1064 13.3933C9.97155 13.3371 9.95132 13.1169 10.0053 12.4157C10.0727 11.5393 10.3548 11 10.7131 11C11.0165 11 11.1513 11.3034 11.4547 11.7753C11.651 12.0807 11.8929 13.2247 11.6906 13.3933C11.4884 13.5618 11.2748 12.7865 10.8817 12.7865Z" fill="#23343B"/>
</svg>
