<svg width="22" height="44" viewBox="0 0 22 44" fill="none" xmlns="http://www.w3.org/2000/svg">
<path d="M4.85549 42V18.9364H17.237V42L11.1676 36.4162L4.85549 42Z" fill="#EDEDDF"/>
<circle cx="10.9249" cy="10.9249" r="10.9249" fill="#EDEDDF"/>
<path d="M4.85549 18.4509V41.5144L11.1676 35.9306L17.237 41.5144V18.4509" stroke="#FFCB7B" stroke-width="2"/>
<path d="M21.8497 10.9249C21.8497 16.9585 16.9585 21.8497 10.9249 21.8497C4.89122 21.8497 0 16.9585 0 10.9249C0 4.89122 4.89122 0 10.9249 0C16.9585 0 21.8497 4.89122 21.8497 10.9249ZM1.84746 10.9249C1.84746 15.9382 5.91155 20.0022 10.9249 20.0022C15.9382 20.0022 20.0022 15.9382 20.0022 10.9249C20.0022 5.91155 15.9382 1.84746 10.9249 1.84746C5.91155 1.84746 1.84746 5.91155 1.84746 10.9249Z" fill="#403A3A"/>
<path d="M7.38095 5L7 5.69547V10.4033L7.38095 10.7H8.19048L9.04762 9.97531H13.381L13.8008 10.3571C14.1361 10.6621 14.6422 10.6816 15 10.4033V5H14.3017C14.105 5 13.9126 5.05805 13.7486 5.16687L12.9524 5.69547H8.80952L8.19048 5H7.38095Z" fill="#828C92"/>
<path d="M12.381 10.8848H10.0476V15.5926H12.381V10.8848Z" fill="#828C92"/>
<path d="M10.0476 18V16.5021H12.381V18H10.0476Z" fill="#828C92"/>
</svg>
