<svg width="22" height="44" viewBox="0 0 22 44" fill="none" xmlns="http://www.w3.org/2000/svg">
<path d="M4.8555 42V18.9364H17.237V42L11.1676 36.4162L4.8555 42Z" fill="#5C681C"/>
<circle cx="10.9249" cy="10.9249" r="10.9249" fill="#5C681C"/>
<path d="M4.8555 18.4509V41.5144L11.1676 35.9306L17.237 41.5144V18.4509" stroke="#FFCB7B" stroke-width="2"/>
<path d="M21.8497 10.9249C21.8497 16.9585 16.9585 21.8497 10.9249 21.8497C4.89122 21.8497 0 16.9585 0 10.9249C0 4.89122 4.89122 0 10.9249 0C16.9585 0 21.8497 4.89122 21.8497 10.9249ZM1.84746 10.9249C1.84746 15.9382 5.91155 20.0022 10.9249 20.0022C15.9382 20.0022 20.0022 15.9382 20.0022 10.9249C20.0022 5.91155 15.9382 1.84746 10.9249 1.84746C5.91155 1.84746 1.84746 5.91155 1.84746 10.9249Z" fill="#403A3A"/>
<g filter="url(#filter0_f_9_785)">
<path d="M9.45782 6.43983L10.9375 4L12.0496 5.72895C12.7595 6.83268 13.2446 8.06572 13.477 9.35733C13.4916 9.43828 13.469 9.5215 13.4156 9.58403L13.3509 9.65976C13.2051 9.83033 13.125 10.0473 13.125 10.2717V10.5206C13.125 10.8836 13.2265 11.2393 13.4181 11.5476L13.5 11.6793H14.5705C14.7568 11.6793 14.8699 11.8848 14.7703 12.0423L13.9694 13.3074C13.8239 13.5373 13.6462 13.7451 13.4417 13.9246C13.2376 14.1038 12.9752 14.2025 12.7037 14.2025H10.9375H9.57172C9.3213 14.2025 9.0766 14.1277 8.86906 13.9875C8.5425 13.7671 8.25952 13.4882 8.03437 13.1648L7.18213 11.9409C7.10529 11.8305 7.18426 11.6793 7.31873 11.6793H8.30088C8.34783 11.6793 8.39234 11.6584 8.42229 11.6223L8.49456 11.5351C8.74044 11.2383 8.875 10.8651 8.875 10.4797V9.62052C8.875 9.53979 8.82318 9.46818 8.7465 9.44294C8.53764 9.3742 8.41815 9.15498 8.47357 8.9422L8.59173 8.4885C8.77958 7.76723 9.07133 7.07712 9.45782 6.43983Z" fill="#79923C"/>
<path d="M11.625 17H10.1875L10.375 14.6962H11.4375L11.625 17Z" fill="#79923C"/>
<path d="M10.9375 14.2025H9.57172C9.3213 14.2025 9.0766 14.1277 8.86906 13.9875V13.9875C8.5425 13.7671 8.25952 13.4882 8.03437 13.1648L7.18213 11.9409C7.10529 11.8305 7.18426 11.6793 7.31873 11.6793H8.30088C8.34783 11.6793 8.39234 11.6584 8.42229 11.6223L8.49456 11.5351C8.74044 11.2383 8.875 10.8651 8.875 10.4797V9.62052C8.875 9.53979 8.82318 9.46818 8.7465 9.44294V9.44294C8.53764 9.3742 8.41815 9.15498 8.47357 8.9422L8.59173 8.4885C8.77958 7.76723 9.07133 7.07712 9.45782 6.43983L10.9375 4L12.0496 5.72895C12.7595 6.83268 13.2446 8.06572 13.477 9.35733V9.35733C13.4916 9.43828 13.469 9.5215 13.4156 9.58403L13.3509 9.65976C13.2051 9.83033 13.125 10.0473 13.125 10.2717V10.5206C13.125 10.8836 13.2265 11.2393 13.4181 11.5476L13.5 11.6793H14.5705C14.7568 11.6793 14.8699 11.8848 14.7703 12.0423L13.9694 13.3074C13.8239 13.5373 13.6462 13.7451 13.4417 13.9246V13.9246C13.2376 14.1038 12.9752 14.2025 12.7037 14.2025H10.9375ZM10.9375 14.2025V12.365V10.5274V6.85232M10.1875 17H11.625L11.4375 14.6962H10.375L10.1875 17Z" stroke="#414B13" stroke-width="0.5"/>
</g>
<defs>
<filter id="filter0_f_9_785" x="6.70155" y="3.32817" width="8.55616" height="14.1218" filterUnits="userSpaceOnUse" color-interpolation-filters="sRGB">
<feFlood flood-opacity="0" result="BackgroundImageFix"/>
<feBlend mode="normal" in="SourceGraphic" in2="BackgroundImageFix" result="shape"/>
<feGaussianBlur stdDeviation="0.1" result="effect1_foregroundBlur_9_785"/>
</filter>
</defs>
</svg>
