<svg width="22" height="44" viewBox="0 0 22 44" fill="none" xmlns="http://www.w3.org/2000/svg">
<path d="M4.85547 42V18.9364H17.237V42L11.1676 36.4162L4.85547 42Z" fill="#335373"/>
<circle cx="10.9249" cy="10.9249" r="10.9249" fill="#335373"/>
<path d="M4.85547 18.4509V41.5144L11.1676 35.9306L17.237 41.5144V18.4509" stroke="#FFCB7B" stroke-width="2"/>
<path d="M21.8497 10.9249C21.8497 16.9585 16.9585 21.8497 10.9249 21.8497C4.89122 21.8497 0 16.9585 0 10.9249C0 4.89122 4.89122 0 10.9249 0C16.9585 0 21.8497 4.89122 21.8497 10.9249ZM1.84746 10.9249C1.84746 15.9382 5.91155 20.0022 10.9249 20.0022C15.9382 20.0022 20.0022 15.9382 20.0022 10.9249C20.0022 5.91155 15.9382 1.84746 10.9249 1.84746C5.91155 1.84746 1.84746 5.91155 1.84746 10.9249Z" fill="#403A3A"/>
<path d="M8.22581 9.12048L7.58065 17H10.0323V14.3976C10.6751 13.8892 11.583 13.8892 12.2258 14.3976V17H15L14.1613 9.12048H8.22581Z" fill="#C49463"/>
<path d="M7 8.18072V5H9.06452V6.08434H10.4839V5.07229L12.2258 5V6.08434H13.4516V5H15V8.18072H7Z" fill="#C49463"/>
</svg>
