<svg width="22" height="44" viewBox="0 0 22 44" fill="none" xmlns="http://www.w3.org/2000/svg">
<path d="M4.85547 42V18.9364H17.237V42L11.1676 36.4162L4.85547 42Z" fill="#391F3E"/>
<circle cx="10.9249" cy="10.9249" r="10.9249" fill="#391F3E"/>
<path d="M4.85547 18.4509V41.5144L11.1676 35.9306L17.237 41.5144V18.4509" stroke="#FFCB7B" stroke-width="2"/>
<path d="M21.8497 10.9249C21.8497 16.9585 16.9585 21.8497 10.9249 21.8497C4.89122 21.8497 0 16.9585 0 10.9249C0 4.89122 4.89122 0 10.9249 0C16.9585 0 21.8497 4.89122 21.8497 10.9249ZM1.84746 10.9249C1.84746 15.9382 5.91155 20.0022 10.9249 20.0022C15.9382 20.0022 20.0022 15.9382 20.0022 10.9249C20.0022 5.91155 15.9382 1.84746 10.9249 1.84746C5.91155 1.84746 1.84746 5.91155 1.84746 10.9249Z" fill="#403A3A"/>
<path d="M9.66306 4.70782L11.1657 3L12.6586 4.73132C13.6579 5.89011 13.6249 7.61521 12.5821 8.73496L11.1657 10.2558L9.74063 8.75613C8.67071 7.63023 8.63706 5.87388 9.66306 4.70782Z" fill="#CD79A3"/>
<path d="M15.4579 8.54797L16.0055 7.39535L16.3103 8.42171C16.737 9.85856 16.3636 11.4139 15.3311 12.5004C15.0747 12.7703 14.7834 13.0047 14.4651 13.1976L14.3961 13.2394C13.3476 13.8746 12.5988 14.9049 12.3182 16.0982L11.665 18.8768C11.5471 19.3782 10.83 19.3681 10.7262 18.8636L10.2134 16.3708C9.93598 15.0224 9.04867 13.8791 7.81137 13.2757L7.66401 13.2038C7.26142 13.0075 6.89724 12.7407 6.58869 12.416C5.61424 11.3906 5.29932 9.90424 5.77417 8.57172L6.19337 7.39535L7.31047 8.90006C7.65042 9.35796 8.18704 9.62791 8.75733 9.62791C9.38808 9.62791 9.97291 9.9577 10.2993 10.4974L11.1657 11.9302L12.1928 10.4441C12.5461 9.933 13.1278 9.62791 13.7491 9.62791C14.4794 9.62791 15.1445 9.20758 15.4579 8.54797Z" fill="#CD79A3"/>
</svg>
